<?xml version="1.0" encoding="UTF-8"?>
<svg version="1.1" xmlns="http://www.w3.org/2000/svg" width="512" height="512">
<path d="M0 0 C2.03308053 1.21348251 3.5801806 2.45030848 5.24609375 4.12890625 C5.81585938 4.67160156 6.385625 5.21429688 6.97265625 5.7734375 C14.56102842 13.73943009 13.24609375 22.08831504 13.24609375 33.12890625 C86.50609375 33.12890625 159.76609375 33.12890625 235.24609375 33.12890625 C235.24609375 28.17890625 235.24609375 23.22890625 235.24609375 18.12890625 C237.06339228 10.53901238 241.28338327 4.65115701 247.921875 0.42578125 C252.12392052 -1.21355966 255.65376504 -1.34961263 260.12109375 -1.30859375 C261.26771484 -1.33856445 261.26771484 -1.33856445 262.4375 -1.36914062 C269.67429724 -1.36299733 274.93658913 0.81940163 280.05859375 5.94140625 C284.53375438 12.4623546 285.69261161 17.31579481 285.43359375 25.06640625 C285.42005859 25.84564453 285.40652344 26.62488281 285.39257812 27.42773438 C285.35759599 29.32843029 285.30380334 31.22876459 285.24609375 33.12890625 C286.36991455 33.10795898 287.49373535 33.08701172 288.65161133 33.06542969 C292.86908952 32.99237114 297.08651321 32.94687007 301.30444336 32.90917969 C303.12094568 32.88921282 304.93738496 32.86202938 306.75366211 32.82714844 C321.70495663 32.54745434 333.34747522 33.66517404 344.80859375 44.31640625 C352.49725819 52.2772358 355.49297673 61.60867792 355.50056934 72.55094719 C355.50377582 73.25616868 355.5069823 73.96139018 355.51028594 74.68798202 C355.5185534 77.03896973 355.5126732 79.3897005 355.50679016 81.74069214 C355.50981233 83.4481387 355.51370214 85.15558391 355.51838273 86.86302674 C355.52866299 91.54592075 355.52648082 96.22873821 355.52220213 100.9116385 C355.51973498 105.96559617 355.52874895 111.01953541 355.53623962 116.07348633 C355.54898886 125.97118501 355.55078004 135.86885657 355.54843936 145.76656209 C355.54665632 153.8116744 355.54840555 161.85677848 355.5526638 169.9018898 C355.55325899 171.04691821 355.55385418 172.19194661 355.55446741 173.37167285 C355.55567916 175.69780126 355.55689329 178.02392968 355.55810978 180.35005809 C355.56898616 202.1644411 355.56682235 223.97880864 355.56072494 245.79319252 C355.55555554 265.74811493 355.56681167 285.70298852 355.58582316 305.65790127 C355.60519657 326.14985232 355.61345844 346.64178027 355.6096999 367.13374054 C355.60778713 378.63751527 355.61028291 390.14124846 355.62441444 401.64501572 C355.63632285 411.43812975 355.63773915 421.23117667 355.62562428 431.02429162 C355.61973187 436.01993705 355.61864624 441.01545967 355.63062668 446.01109695 C355.64147259 450.5868588 355.63839744 455.16239509 355.62436499 459.73814632 C355.62171452 461.39083315 355.6240956 463.04353758 355.63210086 464.69620715 C355.69470884 478.5890644 353.93974088 490.28207264 344.5 501.13671875 C334.4955747 510.74595885 322.6984206 511.86355341 309.54638672 511.76382446 C307.87815439 511.76959487 306.20992844 511.77754213 304.54171562 511.78746068 C299.98558411 511.80823121 295.4299798 511.79806371 290.87384701 511.78252959 C285.94941164 511.7711797 281.02506459 511.7886968 276.10064697 511.8024292 C266.46479412 511.82462736 256.82913633 511.81987565 247.19327593 511.80536599 C239.35993382 511.79406029 231.52664627 511.79254862 223.69329834 511.79798508 C222.57714295 511.79875124 221.46098757 511.79951741 220.31100929 511.80030679 C218.04334846 511.80190546 215.77568764 511.80352653 213.50802684 511.80516975 C192.25912363 511.81941723 171.0103284 511.8030502 149.7614429 511.77616791 C131.54077767 511.75383007 113.32027173 511.75771048 95.09960938 511.78076172 C73.9251881 511.80753737 52.75086139 511.81804402 31.57642555 511.8027004 C29.31724677 511.8011077 27.05806797 511.79953585 24.79888916 511.79798508 C23.13168094 511.79682801 23.13168094 511.79682801 21.43079174 511.79564757 C13.60957938 511.79133588 5.78842716 511.79860569 -2.03277588 511.81038284 C-11.56814157 511.82442597 -21.10330153 511.82056971 -30.63864374 511.79397912 C-35.50096867 511.78086542 -40.36295097 511.77564681 -45.22527313 511.79222488 C-49.68147983 511.80718819 -54.13702819 511.79883168 -58.59317565 511.77233712 C-60.20001191 511.76677909 -61.80690447 511.76953206 -63.41370416 511.78171606 C-76.14056542 511.87077375 -87.15572976 509.76462024 -96.7109375 500.64453125 C-103.51670951 492.26419249 -106.87462304 482.81977716 -106.88533401 472.0760088 C-106.88738665 471.37424883 -106.88943928 470.67248887 -106.89155412 469.94946346 C-106.89721947 467.59225264 -106.89576744 465.23510034 -106.89434814 462.87788391 C-106.89693205 461.17302753 -106.89994528 459.46817175 -106.90335155 457.76331681 C-106.91142185 453.0736651 -106.91321114 448.3840287 -106.91394901 443.69437087 C-106.91579951 438.63831968 -106.92334682 433.58227645 -106.93008423 428.52622986 C-106.94366823 417.468357 -106.94969236 406.41048778 -106.95409489 395.35260797 C-106.95685716 388.44858934 -106.96109448 381.54457211 -106.96559906 374.64055443 C-106.97779174 355.52693043 -106.98809111 336.41330756 -106.99147415 317.29967976 C-106.99169372 316.07627992 -106.99191328 314.85288009 -106.9921395 313.59240754 C-106.99235778 312.36607416 -106.99257606 311.13974079 -106.99280095 309.8762458 C-106.99324442 307.39121139 -106.99369098 304.90617698 -106.99414062 302.42114258 C-106.99436205 301.18847867 -106.99458348 299.95581477 -106.99481162 298.68579742 C-106.99875982 278.71128734 -107.0162145 258.73681374 -107.03950015 238.76231775 C-107.06321186 218.2569047 -107.07567592 197.75150995 -107.07684207 177.24608296 C-107.07775892 165.73219929 -107.08351387 154.21836315 -107.10166168 142.70449257 C-107.1170602 132.90033106 -107.12218457 123.09623177 -107.11392358 113.29206047 C-107.11001624 108.29035684 -107.11095087 103.28877852 -107.12498093 98.2870903 C-107.13771454 93.70566292 -107.13652701 89.12445508 -107.12439021 84.54302802 C-107.12243229 82.88823048 -107.12551605 81.23341742 -107.13423458 79.57864169 C-107.20597277 65.03876892 -105.18906552 53.94791997 -95.12890625 42.94140625 C-88.97980638 37.00273185 -80.35413558 32.98734706 -71.71972656 33.01538086 C-70.54896576 33.01549416 -70.54896576 33.01549416 -69.35455322 33.01560974 C-68.52212097 33.02077103 -67.68968872 33.02593231 -66.83203125 33.03125 C-65.97204529 33.03266495 -65.11205933 33.0340799 -64.22601318 33.03553772 C-61.48527516 33.04112528 -58.74461949 33.0536755 -56.00390625 33.06640625 C-54.14323035 33.07142286 -52.28255316 33.07598548 -50.421875 33.08007812 C-45.86585379 33.09109064 -41.30989397 33.10834674 -36.75390625 33.12890625 C-36.77710937 31.96770264 -36.8003125 30.80649902 -36.82421875 29.61010742 C-36.8429867 28.06820308 -36.8611858 26.52629174 -36.87890625 24.984375 C-36.89566406 24.22120972 -36.91242188 23.45804443 -36.9296875 22.67175293 C-36.98517126 16.22696771 -35.89161972 11.25650333 -31.75390625 6.12890625 C-23.3846205 -1.7844651 -10.97448767 -3.47136277 0 0 Z M-19.75390625 17.12890625 C-21.25547499 20.13204373 -20.84671829 22.91958147 -20.81640625 26.25390625 C-20.79578125 28.52265625 -20.77515625 30.79140625 -20.75390625 33.12890625 C-14.81390625 33.12890625 -8.87390625 33.12890625 -2.75390625 33.12890625 C-2.67140625 31.08703125 -2.58890625 29.04515625 -2.50390625 26.94140625 C-2.4575 25.79285156 -2.41109375 24.64429688 -2.36328125 23.4609375 C-2.83179243 19.46453716 -3.8967087 17.90984407 -6.75390625 15.12890625 C-12.07752301 13.55153832 -15.11019968 14.14366631 -19.75390625 17.12890625 Z M254.24609375 16.12890625 C251.81843691 18.59721764 251.26999896 19.86499273 250.953125 23.36328125 C250.98792969 24.5234375 251.02273438 25.68359375 251.05859375 26.87890625 C251.12046875 28.94140625 251.18234375 31.00390625 251.24609375 33.12890625 C257.18609375 33.12890625 263.12609375 33.12890625 269.24609375 33.12890625 C269.32859375 30.90140625 269.41109375 28.67390625 269.49609375 26.37890625 C269.5425 25.1259375 269.58890625 23.87296875 269.63671875 22.58203125 C269.54113176 19.08935659 269.54113176 19.08935659 267.4140625 16.73046875 C263.04821372 13.50524713 258.89978193 13.48762377 254.24609375 16.12890625 Z " fill="#F7F1EF" transform="translate(131.75390625,0.87109375)"/>
<path d="M0 0 C2.03308053 1.21348251 3.5801806 2.45030848 5.24609375 4.12890625 C5.81585938 4.67160156 6.385625 5.21429688 6.97265625 5.7734375 C14.56102842 13.73943009 13.24609375 22.08831504 13.24609375 33.12890625 C86.50609375 33.12890625 159.76609375 33.12890625 235.24609375 33.12890625 C235.24609375 28.17890625 235.24609375 23.22890625 235.24609375 18.12890625 C237.06339228 10.53901238 241.28338327 4.65115701 247.921875 0.42578125 C252.12392052 -1.21355966 255.65376504 -1.34961263 260.12109375 -1.30859375 C261.26771484 -1.33856445 261.26771484 -1.33856445 262.4375 -1.36914062 C269.67429724 -1.36299733 274.93658913 0.81940163 280.05859375 5.94140625 C284.53375438 12.4623546 285.69261161 17.31579481 285.43359375 25.06640625 C285.42005859 25.84564453 285.40652344 26.62488281 285.39257812 27.42773438 C285.35759599 29.32843029 285.30380334 31.22876459 285.24609375 33.12890625 C286.36991455 33.10795898 287.49373535 33.08701172 288.65161133 33.06542969 C292.86908952 32.99237114 297.08651321 32.94687007 301.30444336 32.90917969 C303.12094568 32.88921282 304.93738496 32.86202938 306.75366211 32.82714844 C321.70495663 32.54745434 333.34747522 33.66517404 344.80859375 44.31640625 C352.49725819 52.2772358 355.49297673 61.60867792 355.50056934 72.55094719 C355.50377582 73.25616868 355.5069823 73.96139018 355.51028594 74.68798202 C355.5185534 77.03896973 355.5126732 79.3897005 355.50679016 81.74069214 C355.50981233 83.4481387 355.51370214 85.15558391 355.51838273 86.86302674 C355.52866299 91.54592075 355.52648082 96.22873821 355.52220213 100.9116385 C355.51973498 105.96559617 355.52874895 111.01953541 355.53623962 116.07348633 C355.54898886 125.97118501 355.55078004 135.86885657 355.54843936 145.76656209 C355.54665632 153.8116744 355.54840555 161.85677848 355.5526638 169.9018898 C355.55325899 171.04691821 355.55385418 172.19194661 355.55446741 173.37167285 C355.55567916 175.69780126 355.55689329 178.02392968 355.55810978 180.35005809 C355.56898616 202.1644411 355.56682235 223.97880864 355.56072494 245.79319252 C355.55555554 265.74811493 355.56681167 285.70298852 355.58582316 305.65790127 C355.60519657 326.14985232 355.61345844 346.64178027 355.6096999 367.13374054 C355.60778713 378.63751527 355.61028291 390.14124846 355.62441444 401.64501572 C355.63632285 411.43812975 355.63773915 421.23117667 355.62562428 431.02429162 C355.61973187 436.01993705 355.61864624 441.01545967 355.63062668 446.01109695 C355.64147259 450.5868588 355.63839744 455.16239509 355.62436499 459.73814632 C355.62171452 461.39083315 355.6240956 463.04353758 355.63210086 464.69620715 C355.69470884 478.5890644 353.93974088 490.28207264 344.5 501.13671875 C334.4955747 510.74595885 322.6984206 511.86355341 309.54638672 511.76382446 C307.87815439 511.76959487 306.20992844 511.77754213 304.54171562 511.78746068 C299.98558411 511.80823121 295.4299798 511.79806371 290.87384701 511.78252959 C285.94941164 511.7711797 281.02506459 511.7886968 276.10064697 511.8024292 C266.46479412 511.82462736 256.82913633 511.81987565 247.19327593 511.80536599 C239.35993382 511.79406029 231.52664627 511.79254862 223.69329834 511.79798508 C222.57714295 511.79875124 221.46098757 511.79951741 220.31100929 511.80030679 C218.04334846 511.80190546 215.77568764 511.80352653 213.50802684 511.80516975 C192.25912363 511.81941723 171.0103284 511.8030502 149.7614429 511.77616791 C131.54077767 511.75383007 113.32027173 511.75771048 95.09960938 511.78076172 C73.9251881 511.80753737 52.75086139 511.81804402 31.57642555 511.8027004 C29.31724677 511.8011077 27.05806797 511.79953585 24.79888916 511.79798508 C23.13168094 511.79682801 23.13168094 511.79682801 21.43079174 511.79564757 C13.60957938 511.79133588 5.78842716 511.79860569 -2.03277588 511.81038284 C-11.56814157 511.82442597 -21.10330153 511.82056971 -30.63864374 511.79397912 C-35.50096867 511.78086542 -40.36295097 511.77564681 -45.22527313 511.79222488 C-49.68147983 511.80718819 -54.13702819 511.79883168 -58.59317565 511.77233712 C-60.20001191 511.76677909 -61.80690447 511.76953206 -63.41370416 511.78171606 C-76.14056542 511.87077375 -87.15572976 509.76462024 -96.7109375 500.64453125 C-103.51670951 492.26419249 -106.87462304 482.81977716 -106.88533401 472.0760088 C-106.88738665 471.37424883 -106.88943928 470.67248887 -106.89155412 469.94946346 C-106.89721947 467.59225264 -106.89576744 465.23510034 -106.89434814 462.87788391 C-106.89693205 461.17302753 -106.89994528 459.46817175 -106.90335155 457.76331681 C-106.91142185 453.0736651 -106.91321114 448.3840287 -106.91394901 443.69437087 C-106.91579951 438.63831968 -106.92334682 433.58227645 -106.93008423 428.52622986 C-106.94366823 417.468357 -106.94969236 406.41048778 -106.95409489 395.35260797 C-106.95685716 388.44858934 -106.96109448 381.54457211 -106.96559906 374.64055443 C-106.97779174 355.52693043 -106.98809111 336.41330756 -106.99147415 317.29967976 C-106.99169372 316.07627992 -106.99191328 314.85288009 -106.9921395 313.59240754 C-106.99235778 312.36607416 -106.99257606 311.13974079 -106.99280095 309.8762458 C-106.99324442 307.39121139 -106.99369098 304.90617698 -106.99414062 302.42114258 C-106.99436205 301.18847867 -106.99458348 299.95581477 -106.99481162 298.68579742 C-106.99875982 278.71128734 -107.0162145 258.73681374 -107.03950015 238.76231775 C-107.06321186 218.2569047 -107.07567592 197.75150995 -107.07684207 177.24608296 C-107.07775892 165.73219929 -107.08351387 154.21836315 -107.10166168 142.70449257 C-107.1170602 132.90033106 -107.12218457 123.09623177 -107.11392358 113.29206047 C-107.11001624 108.29035684 -107.11095087 103.28877852 -107.12498093 98.2870903 C-107.13771454 93.70566292 -107.13652701 89.12445508 -107.12439021 84.54302802 C-107.12243229 82.88823048 -107.12551605 81.23341742 -107.13423458 79.57864169 C-107.20597277 65.03876892 -105.18906552 53.94791997 -95.12890625 42.94140625 C-88.97980638 37.00273185 -80.35413558 32.98734706 -71.71972656 33.01538086 C-70.54896576 33.01549416 -70.54896576 33.01549416 -69.35455322 33.01560974 C-68.52212097 33.02077103 -67.68968872 33.02593231 -66.83203125 33.03125 C-65.97204529 33.03266495 -65.11205933 33.0340799 -64.22601318 33.03553772 C-61.48527516 33.04112528 -58.74461949 33.0536755 -56.00390625 33.06640625 C-54.14323035 33.07142286 -52.28255316 33.07598548 -50.421875 33.08007812 C-45.86585379 33.09109064 -41.30989397 33.10834674 -36.75390625 33.12890625 C-36.77710937 31.96770264 -36.8003125 30.80649902 -36.82421875 29.61010742 C-36.8429867 28.06820308 -36.8611858 26.52629174 -36.87890625 24.984375 C-36.89566406 24.22120972 -36.91242188 23.45804443 -36.9296875 22.67175293 C-36.98517126 16.22696771 -35.89161972 11.25650333 -31.75390625 6.12890625 C-23.3846205 -1.7844651 -10.97448767 -3.47136277 0 0 Z M-19.75390625 17.12890625 C-21.25547499 20.13204373 -20.84671829 22.91958147 -20.81640625 26.25390625 C-20.79578125 28.52265625 -20.77515625 30.79140625 -20.75390625 33.12890625 C-14.81390625 33.12890625 -8.87390625 33.12890625 -2.75390625 33.12890625 C-2.67140625 31.08703125 -2.58890625 29.04515625 -2.50390625 26.94140625 C-2.4575 25.79285156 -2.41109375 24.64429688 -2.36328125 23.4609375 C-2.83179243 19.46453716 -3.8967087 17.90984407 -6.75390625 15.12890625 C-12.07752301 13.55153832 -15.11019968 14.14366631 -19.75390625 17.12890625 Z M254.24609375 16.12890625 C251.81843691 18.59721764 251.26999896 19.86499273 250.953125 23.36328125 C250.98792969 24.5234375 251.02273438 25.68359375 251.05859375 26.87890625 C251.12046875 28.94140625 251.18234375 31.00390625 251.24609375 33.12890625 C257.18609375 33.12890625 263.12609375 33.12890625 269.24609375 33.12890625 C269.32859375 30.90140625 269.41109375 28.67390625 269.49609375 26.37890625 C269.5425 25.1259375 269.58890625 23.87296875 269.63671875 22.58203125 C269.54113176 19.08935659 269.54113176 19.08935659 267.4140625 16.73046875 C263.04821372 13.50524713 258.89978193 13.48762377 254.24609375 16.12890625 Z M-85.62890625 56.12890625 C-86.18320313 56.78890625 -86.7375 57.44890625 -87.30859375 58.12890625 C-90.53916454 62.59931772 -91.03737846 66.09617474 -90.98095703 71.55957031 C-90.98124908 72.30142578 -90.98154114 73.04328125 -90.98184204 73.80761719 C-90.98045158 76.25337526 -90.9649039 78.69882657 -90.94921875 81.14453125 C-90.94548761 82.8427514 -90.94264111 84.5409737 -90.94064331 86.23919678 C-90.93301482 90.70428432 -90.91337306 95.16924131 -90.89123535 99.63427734 C-90.87076004 104.19236485 -90.86163799 108.75047349 -90.8515625 113.30859375 C-90.83012643 122.24875521 -90.79599993 131.18881986 -90.75390625 140.12890625 C-89.72295837 140.13255188 -88.6920105 140.13619751 -87.62982178 140.13995361 C-77.91822344 140.17688092 -68.20694285 140.23462864 -58.4955864 140.31280899 C-53.50274075 140.35233296 -48.51007278 140.38449726 -43.51708984 140.39990234 C-38.69933202 140.41503658 -33.88206249 140.44942437 -29.06452179 140.49721527 C-27.2257537 140.51206251 -25.38691591 140.51994918 -23.54808807 140.5207901 C-20.97391079 140.52315151 -18.40109204 140.55016298 -15.82714844 140.58300781 C-14.68455315 140.57546227 -14.68455315 140.57546227 -13.51887512 140.56776428 C-10.04932907 140.63634357 -8.09570511 140.87465613 -5.27667236 142.97161865 C-3.22118286 145.88361017 -3.23431683 147.64023444 -3.75390625 151.12890625 C-5.29897091 153.1655824 -6.47536781 153.98963703 -8.75390625 155.12890625 C-11.34663817 155.25122985 -13.91429511 155.31457305 -16.50830078 155.33422852 C-17.70842804 155.34907791 -17.70842804 155.34907791 -18.93280029 155.36422729 C-21.58407608 155.39587887 -24.23536981 155.42061414 -26.88671875 155.4453125 C-28.72232536 155.46587887 -30.55792721 155.48687526 -32.39352417 155.50828552 C-37.23008364 155.56353893 -42.06668608 155.61293377 -46.90332031 155.66113281 C-51.83662755 155.71132399 -56.76987221 155.76702248 -61.703125 155.82226562 C-71.38666533 155.92988717 -81.07025993 156.03132326 -90.75390625 156.12890625 C-90.8683933 193.28511884 -90.95647627 230.44130482 -91.0092329 267.59765815 C-91.0154863 271.98600416 -91.02195793 276.37434982 -91.02856445 280.76269531 C-91.02987601 281.63632234 -91.03118756 282.50994936 -91.03253885 283.41004993 C-91.05428527 297.54887496 -91.09370258 311.68759817 -91.13967023 325.82636283 C-91.18645615 340.33802402 -91.21420616 354.84963193 -91.22434872 369.36136544 C-91.23120347 378.31327103 -91.25283999 387.26488878 -91.29348858 396.21670575 C-91.31995333 402.3583828 -91.32789882 408.4999114 -91.32141314 414.6416413 C-91.318216 418.18324349 -91.32305727 421.72434332 -91.34993362 425.26585579 C-91.37890554 429.11173709 -91.36881382 432.95696971 -91.35517883 436.802948 C-91.36974304 437.91386743 -91.38430725 439.02478687 -91.39931279 440.16937053 C-91.32910807 447.50733342 -89.81939185 452.96546452 -85.75390625 459.12890625 C-83.55722315 461.4145075 -83.55722315 461.4145075 -81.12890625 462.69140625 C-80.37351562 463.14644531 -79.618125 463.60148437 -78.83984375 464.0703125 C-75.32436041 465.85438738 -72.58563509 466.25501236 -68.70069408 466.26033401 C-67.64991906 466.26417516 -66.59914404 466.2680163 -65.51652735 466.27197385 C-64.35818316 466.27110737 -63.19983897 466.27024088 -62.00639343 466.26934814 C-60.77891429 466.27231927 -59.55143515 466.27529039 -58.28675967 466.27835155 C-54.87323225 466.28554013 -51.45975515 466.28821151 -48.04622376 466.28894901 C-44.36718501 466.29079834 -40.68815719 466.29834505 -37.00912476 466.30508423 C-28.96163704 466.31867291 -20.9141543 466.32469306 -12.86665702 466.32909489 C-7.84314413 466.33185632 -2.81963318 466.33609348 2.2038784 466.34059906 C16.1086493 466.35279226 30.01341865 466.36309158 43.91819477 466.36647415 C44.80833102 466.36669372 45.69846727 466.36691328 46.61557735 466.3671395 C47.50785964 466.36735778 48.40014193 466.36757606 49.31946307 466.36780095 C51.12760755 466.36824442 52.93575202 466.36869098 54.74389648 466.36914062 C55.64080116 466.36936205 56.53770584 466.36958348 57.46178945 466.36981162 C71.99755323 466.37376034 86.53326689 466.39121635 101.06901131 466.41450015 C115.98756097 466.43820453 130.90608548 466.45067558 145.82465428 466.45184207 C154.20294275 466.45275933 162.58116592 466.4585244 170.95943642 466.47666168 C178.0932257 466.49205034 185.22692951 466.49719045 192.36073224 466.48892358 C196.0009648 466.48501271 199.64102519 466.48596779 203.28123665 466.49998093 C207.22677576 466.51503065 211.1720716 466.50686624 215.11763 466.49639893 C216.26928203 466.50445533 217.42093406 466.51251173 218.60748464 466.52081227 C225.2054833 466.47973929 230.08840937 466.1012339 235.109375 461.375 C235.58761719 460.77816406 236.06585938 460.18132812 236.55859375 459.56640625 C237.04972656 458.96699219 237.54085938 458.36757813 238.046875 457.75 C240.4261765 454.53368038 240.37505644 452.31443513 240.38793945 448.35327148 C240.39497391 447.14118515 240.40200836 445.92909882 240.40925598 444.68028259 C240.4155024 442.70385521 240.4155024 442.70385521 240.421875 440.6875 C240.43230205 439.32185596 240.44372508 437.9562192 240.45610046 436.59059143 C240.50848722 430.78951465 240.55645664 424.98856364 240.57202148 419.18725586 C240.58216797 415.63796325 240.61166621 412.08926528 240.65334129 408.54020882 C240.67147891 406.54360228 240.66901533 404.54684242 240.66609192 402.55015564 C240.76465348 395.1739891 241.51779473 389.55045178 245.24609375 383.12890625 C245.69210937 382.33097656 246.138125 381.53304688 246.59765625 380.7109375 C251.05849621 374.51228566 257.00514746 370.54255501 264.24609375 368.12890625 C266.18716607 368.02701133 268.13148717 367.98314887 270.07519531 367.97119141 C271.87286346 367.95579819 271.87286346 367.95579819 273.70684814 367.94009399 C275.00370544 367.93279266 276.30056274 367.92549133 277.63671875 367.91796875 C278.98330501 367.90499947 280.32988335 367.89118276 281.67645264 367.8765564 C287.39116293 367.81506835 293.10585218 367.76100141 298.82080078 367.72753906 C302.31929153 367.70650578 305.81739681 367.67113191 309.3156662 367.62678146 C311.28687828 367.60586497 313.25823645 367.60058723 315.22955322 367.59561157 C325.51344572 367.45865405 325.51344572 367.45865405 334.20703125 362.41015625 C334.67367188 361.82234375 335.1403125 361.23453125 335.62109375 360.62890625 C336.10320312 360.04109375 336.5853125 359.45328125 337.08203125 358.84765625 C339.75059683 354.90749231 339.38377065 350.80701874 339.36634827 346.251297 C339.36720269 345.44019036 339.36805712 344.62908371 339.36893743 343.79339808 C339.37058894 341.0664261 339.36507621 338.33951518 339.35961914 335.61254883 C339.35933717 333.66139223 339.35949519 331.71023552 339.36006165 329.75907898 C339.36034924 324.45363146 339.35445857 319.14820642 339.34748769 313.84276414 C339.3412479 308.30140181 339.34064985 302.760039 339.33946228 297.21867371 C339.33635081 286.72147592 339.3281399 276.22428852 339.31811279 265.72709531 C339.30694594 253.77804045 339.30143976 241.8289851 339.29641736 229.87992632 C339.28595715 205.2962472 339.26836126 180.71257731 339.24609375 156.12890625 C338.56876609 156.12868888 337.89143843 156.12847151 337.19358569 156.12824756 C297.06930655 156.11473819 256.94512817 156.07528892 216.82091163 156.00205063 C212.00552671 155.99328364 207.19014141 155.98473388 202.37475586 155.97631836 C201.41608007 155.9746393 200.45740428 155.97296023 199.46967771 155.97123029 C183.93722028 155.94454441 168.40479976 155.93546407 152.87232176 155.93286482 C136.94020107 155.92980776 121.00818726 155.90788969 105.07611483 155.86838168 C95.24136029 155.84459058 85.40681895 155.83559513 75.57203957 155.84539314 C68.83231028 155.85069983 62.09277243 155.83772273 55.35309765 155.81024335 C51.46180271 155.79492137 47.57093607 155.78778034 43.67962837 155.80230904 C39.46395872 155.81783853 35.24938041 155.79492735 31.0337677 155.7681427 C29.7993375 155.77881596 28.56490731 155.78948922 27.29307014 155.80048591 C18.08913376 155.69084527 18.08913376 155.69084527 14.95077038 152.78426647 C13.24609375 150.12890625 13.24609375 150.12890625 13.18359375 147.00390625 C14.41401601 143.67452836 15.23484088 142.90624525 18.24609375 141.12890625 C20.80114913 140.74989873 20.80114913 140.74989873 23.75146103 140.74414539 C25.44066229 140.72996058 25.44066229 140.72996058 27.16398883 140.71548921 C28.40133187 140.72033678 29.6386749 140.72518436 30.91351318 140.73017883 C32.22775119 140.72353201 33.5419892 140.71688518 34.8960526 140.71003693 C38.54697665 140.69197372 42.1976977 140.69257328 45.84865594 140.6961664 C49.78457967 140.69678914 53.72043462 140.68018061 57.65632629 140.66564941 C64.47652441 140.64283507 71.29667135 140.63097343 78.11690521 140.62652016 C87.97784236 140.62006568 97.8386869 140.59714069 107.69958678 140.57017686 C123.69766072 140.52687957 139.69573078 140.49692963 155.69384766 140.4753418 C171.23585931 140.45434092 186.77783911 140.42707361 202.31982422 140.39135742 C203.27759891 140.3891586 204.23537359 140.38695977 205.22217175 140.38469432 C210.02697633 140.37362489 214.83178061 140.36243204 219.63658476 140.35117781 C259.50639332 140.25795107 299.37621855 140.18637241 339.24609375 140.12890625 C339.36220056 130.35803093 339.45091675 120.58732107 339.50515461 110.81589508 C339.53119288 106.27805628 339.56648444 101.7406912 339.62329102 97.203125 C339.67781814 92.81995521 339.70755765 88.43723963 339.72047997 84.05375671 C339.72968289 82.38564407 339.74765423 80.71755489 339.77474403 79.04963684 C339.92663734 69.30561453 339.90835522 62.01143736 332.83833313 54.66638184 C327.21700768 49.49432047 321.48288963 47.74787481 314.02563477 47.78833008 C313.34186264 47.787892 312.65809052 47.78745392 311.95359802 47.78700256 C309.71876333 47.78907386 307.48470179 47.81232437 305.25 47.8359375 C303.69059153 47.8415394 302.13117774 47.84580669 300.57176208 47.84880066 C296.48639098 47.86020276 292.40134469 47.88962935 288.31610107 47.9229126 C284.13981519 47.95371401 279.96347634 47.96732743 275.78710938 47.98242188 C267.60662251 48.01450408 259.42639865 48.06564353 251.24609375 48.12890625 C251.1299798 52.37867671 251.05887026 56.62803962 250.99609375 60.87890625 C250.94582031 62.68875 250.94582031 62.68875 250.89453125 64.53515625 C250.87519531 66.27539062 250.87519531 66.27539062 250.85546875 68.05078125 C250.82404785 69.65324707 250.82404785 69.65324707 250.79199219 71.28808594 C251.35565269 74.81429755 252.48456797 75.94421971 255.24609375 78.12890625 C257.28354625 78.90631383 257.28354625 78.90631383 259.37109375 79.19140625 C263.24609375 80.12890625 263.24609375 80.12890625 265.24609375 83.12890625 C265.05859375 86.69140625 265.05859375 86.69140625 264.24609375 90.12890625 C260.19635063 92.828735 257.00609318 92.91968035 252.24609375 92.12890625 C249.9381191 91.00239481 247.94994061 89.73170397 245.875 88.22265625 C244.29636543 86.94308832 244.29636543 86.94308832 242.24609375 87.12890625 C234.76884053 72.17439981 237.06127145 71.76905948 236.24609375 48.12890625 C151.10609375 48.12890625 65.96609375 48.12890625 -21.75390625 48.12890625 C-23.81188927 69.67075986 -23.81188927 69.67075986 -18.75390625 77.12890625 C-16.58977697 78.28093634 -16.58977697 78.28093634 -14.19140625 78.81640625 C-9.92430984 79.95850266 -9.92430984 79.95850266 -7.75390625 82.12890625 C-7.18700484 88.36482174 -7.18700484 88.36482174 -9.01171875 90.82421875 C-11.74670398 92.87239155 -14.02529507 92.60066732 -17.34375 92.4765625 C-22.89817317 91.67535721 -26.64571742 89.23709508 -30.56640625 85.31640625 C-36.03487579 77.34806492 -36.26661654 70.7149486 -36.44140625 61.19140625 C-36.47556641 59.93521484 -36.50972656 58.67902344 -36.54492188 57.38476562 C-36.62703739 54.29956839 -36.69630924 51.21464241 -36.75390625 48.12890625 C-41.87673384 48.02944873 -46.99898979 47.95716216 -52.12255859 47.90917969 C-53.86256714 47.88916103 -55.60250924 47.86193739 -57.34228516 47.82714844 C-59.85465971 47.77819673 -62.366139 47.75584038 -64.87890625 47.73828125 C-66.03096558 47.70731354 -66.03096558 47.70731354 -67.20629883 47.67572021 C-74.66547853 47.67267549 -80.84509954 50.26931526 -85.62890625 56.12890625 Z " fill="#040303" transform="translate(131.75390625,0.87109375)"/>
<path d="M0 0 C0.81417892 0.0028299 1.62835785 0.00565979 2.46720886 0.00857544 C5.05511475 0.01972666 7.64266833 0.04482167 10.23046875 0.0703125 C11.99022936 0.08034885 13.74999542 0.08947356 15.50976562 0.09765625 C19.81263473 0.1196494 24.11524211 0.15414414 28.41796875 0.1953125 C28.42207764 0.96085449 28.42618652 1.72639648 28.43041992 2.51513672 C28.46361935 6.0342761 28.53429439 9.55174434 28.60546875 13.0703125 C28.61126953 14.27429688 28.61707031 15.47828125 28.62304688 16.71875 C28.81325571 24.4961781 29.79305285 30.7721173 34.41796875 37.1953125 C39.14733777 41.61055976 43.31694069 44.31329194 49.91796875 44.4453125 C50.69140625 44.47109375 51.46484375 44.496875 52.26171875 44.5234375 C54.48538209 44.35635295 54.48538209 44.35635295 56.17578125 42.8984375 C58.23863081 40.07012805 57.77885411 37.56357589 57.41796875 34.1953125 C56.5273566 32.21952511 56.5273566 32.21952511 54.41796875 31.1953125 C52.4007427 30.72042387 50.40600698 30.31854542 48.35546875 30.015625 C46.41796875 29.1953125 46.41796875 29.1953125 43.41796875 24.1953125 C43.41796875 16.2753125 43.41796875 8.3553125 43.41796875 0.1953125 C128.55796875 0.1953125 213.69796875 0.1953125 301.41796875 0.1953125 C301.74796875 9.7653125 302.07796875 19.3353125 302.41796875 29.1953125 C304.06796875 31.8353125 305.71796875 34.4753125 307.41796875 37.1953125 C307.41796875 37.8553125 307.41796875 38.5153125 307.41796875 39.1953125 C307.95421875 39.4634375 308.49046875 39.7315625 309.04296875 40.0078125 C311.41796875 41.1953125 311.41796875 41.1953125 314.10546875 42.8203125 C318.33790345 44.57717219 321.89611048 44.94895554 326.41796875 44.1953125 C329.1936172 42.83769096 329.1936172 42.83769096 330.41796875 40.1953125 C330.50713029 36.56881299 330.50713029 36.56881299 329.41796875 33.1953125 C326.49595844 31.01581164 326.49595844 31.01581164 322.91796875 30.2578125 C318.33970649 28.86798288 318.33970649 28.86798288 316.41796875 26.1953125 C316.07739258 23.46801758 316.07739258 23.46801758 316.125 20.21484375 C316.13466797 19.05146484 316.14433594 17.88808594 316.15429688 16.68945312 C316.17943359 15.47451172 316.20457031 14.25957031 316.23046875 13.0078125 C316.24400391 11.78126953 316.25753906 10.55472656 316.27148438 9.29101562 C316.30688134 6.25867586 316.35626115 3.22721254 316.41796875 0.1953125 C325.37201835 0.07900217 334.32580432 -0.00961212 343.28044701 -0.06374836 C347.43935374 -0.08974302 351.59774025 -0.12495267 355.75634766 -0.18188477 C359.77643505 -0.23657045 363.79602493 -0.26618406 367.81645584 -0.27907372 C369.343368 -0.28824861 370.87025568 -0.30616405 372.39695358 -0.33333778 C382.23877643 -0.5014028 390.88007187 -0.09918682 398.3465271 7.03910828 C403.16626865 12.31051632 404.71898736 16.46352841 404.64501953 23.62597656 C404.64531158 24.36783203 404.64560364 25.1096875 404.64590454 25.87402344 C404.64451408 28.31978151 404.6289664 30.76523282 404.61328125 33.2109375 C404.60955011 34.90915765 404.60670361 36.60737995 404.60470581 38.30560303 C404.59707732 42.77069057 404.57743556 47.23564756 404.55529785 51.70068359 C404.53482254 56.2587711 404.52570049 60.81687974 404.515625 65.375 C404.49418893 74.31516146 404.46006243 83.25522611 404.41796875 92.1953125 C403.74064109 92.19552987 403.06331343 92.19574724 402.36546069 92.19597119 C362.24118155 92.20948056 322.11700317 92.24892983 281.99278663 92.32216812 C277.17740171 92.33093511 272.36201641 92.33948487 267.54663086 92.34790039 C266.10861717 92.35041898 266.10861717 92.35041898 264.64155271 92.35298846 C249.10909528 92.37967434 233.57667476 92.38875468 218.04419676 92.39135393 C202.11207607 92.39441099 186.18006226 92.41632906 170.24798983 92.45583707 C160.41323529 92.47962817 150.57869395 92.48862362 140.74391457 92.47882561 C134.00418528 92.47351892 127.26464743 92.48649602 120.52497265 92.5139754 C116.63367771 92.52929738 112.74281107 92.53643841 108.85150337 92.52190971 C104.63583372 92.50638022 100.42125541 92.5292914 96.2056427 92.55607605 C94.9712125 92.54540279 93.73678231 92.53472953 92.46494514 92.52373284 C85.72478221 92.38435631 85.72478221 92.38435631 80.18123913 95.67276478 C79.30842029 96.9214259 79.30842029 96.9214259 78.41796875 98.1953125 C77.41796875 99.1953125 77.41796875 99.1953125 74.2578125 99.29296875 C72.97003906 99.28136719 71.68226563 99.26976562 70.35546875 99.2578125 C68.41994141 99.24427734 68.41994141 99.24427734 66.4453125 99.23046875 C65.44628906 99.21886719 64.44726562 99.20726562 63.41796875 99.1953125 C63.08796875 99.8553125 62.75796875 100.5153125 62.41796875 101.1953125 C61.96421875 100.0609375 61.51046875 98.9265625 61.04296875 97.7578125 C59.84701069 94.14809558 59.84701069 94.14809558 57.41796875 93.1953125 C54.79472957 93.07293496 52.19628143 93.00963496 49.57177734 92.98999023 C48.76193893 92.98009064 47.95210052 92.97019104 47.11772156 92.95999146 C44.43397979 92.92833851 41.7502203 92.90360406 39.06640625 92.87890625 C37.20837945 92.85834 35.35035736 92.83734361 33.49234009 92.81593323 C28.5965964 92.7606786 23.70081024 92.71128429 18.80499268 92.66308594 C13.81136282 92.61289565 8.8177948 92.5571967 3.82421875 92.50195312 C-5.97781179 92.39433008 -15.77989597 92.29289433 -25.58203125 92.1953125 C-25.69813806 82.42443718 -25.78685425 72.65372732 -25.84109211 62.88230133 C-25.86713038 58.34446253 -25.90242194 53.80709745 -25.95922852 49.26953125 C-26.01375564 44.88636146 -26.04349515 40.50364588 -26.05641747 36.12016296 C-26.06562039 34.45205032 -26.08359173 32.78396114 -26.11068153 31.11604309 C-26.27123565 20.81642581 -25.99184372 14.13235245 -18.73828125 6.171875 C-18.19171875 5.72585937 -17.64515625 5.27984375 -17.08203125 4.8203125 C-16.53546875 4.35882813 -15.98890625 3.89734375 -15.42578125 3.421875 C-10.46427134 0.12120951 -5.81873715 -0.07665926 0 0 Z " fill="#FDCD84" transform="translate(66.58203125,48.8046875)"/>
<path d="M0 0 C0.11617382 10.90980144 0.20485706 21.81945418 0.25906086 32.72974968 C0.28508442 37.79661889 0.32034946 42.86306293 0.37719727 47.9296875 C0.43177622 52.82508613 0.46147493 57.72007743 0.47438622 62.61575699 C0.48357982 64.47758516 0.50153248 66.33939262 0.52865028 68.20104599 C0.79659681 87.36904997 0.79659681 87.36904997 -5 95 C-7.3515625 97.25390625 -7.3515625 97.25390625 -9.625 98.5625 C-10.38039063 99.01753906 -11.13578125 99.47257812 -11.9140625 99.94140625 C-15.92689055 101.97787891 -19.09299969 102.12915372 -23.5413065 102.1398077 C-24.54743138 102.14423484 -24.54743138 102.14423484 -25.57388201 102.14875141 C-27.83764238 102.15746293 -30.10135178 102.15902491 -32.36512756 102.16062927 C-33.99813678 102.16535886 -35.63114483 102.17050958 -37.26415151 102.17604691 C-41.76448946 102.18997296 -46.26481929 102.19754224 -50.76517332 102.2040199 C-54.62211111 102.21038549 -58.47903556 102.22045637 -62.33596504 102.23058056 C-75.04498476 102.26392508 -87.75401259 102.28543006 -100.46306172 102.30378041 C-103.77188882 102.30857453 -107.08071559 102.31355796 -110.38954234 102.31858563 C-130.93148484 102.34955649 -151.47343014 102.37624547 -172.01538944 102.39300442 C-176.77482674 102.396954 -181.53426398 102.40095698 -186.29370117 102.4050293 C-188.06813286 102.40654184 -188.06813286 102.40654184 -189.87841164 102.40808494 C-209.04154701 102.42509181 -228.20455323 102.4662003 -247.36762554 102.51705229 C-267.03676427 102.5688183 -286.70583657 102.59794538 -306.37504286 102.6052013 C-317.42065947 102.60986489 -328.46606464 102.62463023 -339.51161385 102.6649456 C-348.91878376 102.69923904 -358.32570409 102.71318766 -367.73293293 102.70052146 C-372.53225158 102.69469297 -377.33104232 102.69857201 -382.13028145 102.7286911 C-386.52696729 102.75605846 -390.9227503 102.75555151 -395.31945627 102.73318065 C-396.90703055 102.72995881 -398.49466532 102.73681985 -400.08213902 102.75497787 C-409.30352967 102.85403106 -416.757659 102.2975904 -424 96 C-428.30213859 90.97885326 -429.64909161 86.55028996 -430 80 C-428.87851562 80.52400391 -428.87851562 80.52400391 -427.734375 81.05859375 C-426.74953125 81.51363281 -425.7646875 81.96867187 -424.75 82.4375 C-423.77546875 82.88996094 -422.8009375 83.34242188 -421.796875 83.80859375 C-417.58449736 85.60297249 -414.15658907 86.12586852 -409.57779789 86.13701439 C-408.47013099 86.14208893 -407.36246409 86.14716347 -406.22123152 86.15239179 C-404.39602757 86.15313843 -404.39602757 86.15313843 -402.53395081 86.15390015 C-400.59472831 86.16047353 -400.59472831 86.16047353 -398.61632961 86.1671797 C-395.02476539 86.17913502 -391.4332146 86.18479125 -387.84163439 86.18936086 C-383.96888196 86.19532105 -380.09614555 86.20693 -376.22340393 86.21765137 C-366.86786923 86.24216806 -357.51232923 86.25680261 -348.15677229 86.26971143 C-345.5133225 86.27342427 -342.86987324 86.27739744 -340.22642398 86.2814641 C-323.80391415 86.30670446 -307.38140346 86.32875326 -290.95887852 86.34119225 C-287.15528421 86.34412185 -283.35168994 86.34708353 -279.5480957 86.35009766 C-278.13008052 86.35121673 -278.13008052 86.35121673 -276.68341856 86.35235842 C-261.37966364 86.36500392 -246.07602512 86.39821634 -230.77232457 86.43989949 C-215.05253189 86.48236409 -199.33279871 86.50589261 -183.61294883 86.51111281 C-174.79006416 86.51452208 -165.96736128 86.52621984 -157.14453316 86.55921555 C-149.62812235 86.58727965 -142.11193063 86.59818765 -134.59547151 86.58702008 C-130.76387889 86.58184937 -126.93274458 86.58461566 -123.10121918 86.60948563 C-118.93679905 86.63628928 -114.77337812 86.62386382 -110.60890198 86.60800171 C-109.41217584 86.6218838 -108.2154497 86.63576588 -106.98245913 86.65006864 C-95.14870104 86.5394668 -85.32137045 83.17391952 -76.7980957 74.85452271 C-75.87472412 73.91253021 -74.95135254 72.97053772 -74 72 C-72.79361021 70.8049938 -71.58537823 69.61184569 -70.37573242 68.4201355 C-66.7865503 64.87171463 -63.22492455 61.29675772 -59.66972351 57.71432304 C-57.30201975 55.32905392 -54.93063873 52.9474964 -52.55822754 50.56690979 C-45.82128443 43.80564601 -39.09021207 37.0385588 -32.36328125 30.26733398 C-28.23221456 26.10957582 -24.09636286 21.95662839 -19.95747375 17.80665779 C-18.38304646 16.22600912 -16.81052086 14.64346393 -15.23991394 13.05901909 C-13.0570017 10.85701525 -10.86811362 8.66112534 -8.67773438 6.46655273 C-7.70220612 5.47788208 -7.70220612 5.47788208 -6.70697021 4.46923828 C-2.22789975 0 -2.22789975 0 0 0 Z " fill="#CCBEB9" transform="translate(471,395)"/>
<path d="M0 0 C0.84137512 -0.00960754 1.68275024 -0.01921509 2.54962158 -0.02911377 C3.46104919 -0.03336365 4.37247681 -0.03761353 5.31152344 -0.04199219 C6.24889343 -0.04769226 7.18626343 -0.05339233 8.15203857 -0.05926514 C10.13927072 -0.06872284 12.12651861 -0.07525217 14.11376953 -0.07910156 C17.1448128 -0.08878386 20.17517133 -0.11979035 23.20605469 -0.15136719 C25.13704025 -0.15789959 27.06803065 -0.16314913 28.99902344 -0.16699219 C29.90235413 -0.17933899 30.80568481 -0.19168579 31.73638916 -0.20440674 C38.56591785 -0.18040618 42.54818406 1.04152974 47.75878906 5.69628906 C50.98748708 9.90516217 50.60210409 14.49698159 50.51464844 19.59863281 C50.51468872 20.59693115 50.514729 21.59522949 50.51477051 22.6237793 C50.50942378 24.72841712 50.49187747 26.83305501 50.46289062 28.9375 C50.42103448 32.15068885 50.42182575 35.3617797 50.42871094 38.57519531 C50.41821756 40.62468898 50.40527866 42.67417189 50.38964844 44.72363281 C50.38934631 46.15823853 50.38934631 46.15823853 50.38903809 47.62182617 C50.29746829 52.80769023 50.09448946 56.84089119 46.92089844 61.16113281 C41.30091767 65.4864843 36.54430458 65.75284442 29.60449219 65.69238281 C28.62980484 65.69620972 27.65511749 65.70003662 26.65089417 65.70397949 C24.59936484 65.70669053 22.54780047 65.6993862 20.49633789 65.68261719 C17.36428566 65.66117312 14.23452108 65.68245866 11.10253906 65.70800781 C9.10318507 65.70536485 7.10383249 65.70024051 5.10449219 65.69238281 C3.70740273 65.7045282 3.70740273 65.7045282 2.28208923 65.71691895 C-3.30129056 65.6367277 -6.80028582 65.09740347 -11.07910156 61.16113281 C-15.20100435 55.628484 -15.66333545 51.27781101 -15.57519531 44.50097656 C-15.57665054 43.59287735 -15.57810577 42.68477814 -15.5796051 41.74916077 C-15.57795262 39.83884455 -15.56646472 37.92851412 -15.5456543 36.01831055 C-15.5166525 33.10375158 -15.52506866 30.19100912 -15.53808594 27.27636719 C-15.53184894 25.41372819 -15.52345831 23.5510949 -15.51269531 21.68847656 C-15.51563095 20.82270493 -15.51856659 19.95693329 -15.52159119 19.06492615 C-15.43268973 13.33291754 -14.61756447 8.88045313 -10.54394531 4.51660156 C-4.69415715 0.04323415 -4.69415715 0.04323415 0 0 Z " fill="#070605" transform="translate(289.0791015625,278.8388671875)"/>
<path d="M0 0 C1.22223518 -0.02409439 1.22223518 -0.02409439 2.46916199 -0.04867554 C6.20013393 -0.09339012 9.93093162 -0.13420804 13.66210938 -0.15722656 C15.62414437 -0.17375374 17.58611996 -0.20100086 19.54785156 -0.23925781 C22.38809193 -0.29431515 25.22692319 -0.31594612 28.06762695 -0.33056641 C28.93562424 -0.35323578 29.80362152 -0.37590515 30.69792175 -0.39926147 C36.96555649 -0.37775494 41.13037984 1.11229857 45.9309082 5.19287109 C49.91085373 9.58556993 49.36570131 14.68828128 49.3293457 20.31396484 C49.33221588 21.29148209 49.33508606 22.26899933 49.33804321 23.27613831 C49.34008101 25.33961569 49.33457106 27.40311251 49.32202148 29.46655273 C49.30598138 32.61600214 49.32187124 35.7641649 49.34106445 38.91357422 C49.33908163 40.92204058 49.33523716 42.93050614 49.3293457 44.93896484 C49.3354184 45.87663193 49.34149109 46.81429901 49.3477478 47.78038025 C49.29190288 53.00283164 48.8531592 56.67751621 45.9309082 61.19287109 C42.39924931 64.39343697 39.25278719 65.31017072 34.5546875 65.36987305 C33.23267586 65.3891259 33.23267586 65.3891259 31.88395691 65.4087677 C30.93394302 65.41615463 29.98392914 65.42354156 29.00512695 65.43115234 C28.02477982 65.43922409 27.04443268 65.44729584 26.03437805 65.45561218 C23.9589718 65.46944389 21.8835429 65.48017013 19.80810547 65.48803711 C16.64091713 65.50524877 13.47477305 65.54914333 10.30786133 65.59326172 C8.29029087 65.60338909 6.27271155 65.61190505 4.25512695 65.61865234 C3.31118576 65.63616043 2.36724457 65.65366852 1.3946991 65.67170715 C-4.24091971 65.65319859 -7.75575459 65.18520448 -12.0690918 61.19287109 C-16.17283997 55.67557164 -16.66391233 51.32469168 -16.6003418 44.56787109 C-16.6041687 43.66214355 -16.60799561 42.75641602 -16.61193848 41.82324219 C-16.61464834 39.91714357 -16.6073523 38.01100718 -16.59057617 36.10498047 C-16.56915277 33.20113568 -16.59040891 30.29976469 -16.6159668 27.39599609 C-16.61332336 25.53661568 -16.60819804 23.67723679 -16.6003418 21.81787109 C-16.60843872 20.95726074 -16.61653564 20.09665039 -16.62487793 19.20996094 C-16.53504851 13.3839635 -15.4169697 9.98872924 -12.0690918 5.19287109 C-8.21377743 1.6196529 -5.23675313 0.09414736 0 0 Z " fill="#0A0908" transform="translate(290.069091796875,185.80712890625)"/>
<path d="M0 0 C1.22223518 -0.02409439 1.22223518 -0.02409439 2.46916199 -0.04867554 C6.20013393 -0.09339012 9.93093162 -0.13420804 13.66210938 -0.15722656 C15.62414437 -0.17375374 17.58611996 -0.20100086 19.54785156 -0.23925781 C22.38809193 -0.29431515 25.22692319 -0.31594612 28.06762695 -0.33056641 C28.93562424 -0.35323578 29.80362152 -0.37590515 30.69792175 -0.39926147 C36.96521163 -0.37775612 41.13087528 1.11197246 45.9309082 5.19287109 C49.89509245 9.57746197 49.38210066 14.66430653 49.36450195 20.27880859 C49.3697438 21.25395416 49.37498566 22.22909973 49.38038635 23.23379517 C49.38679872 25.29306081 49.38547974 27.35236312 49.37695312 29.41162109 C49.36845574 32.55031145 49.39719576 35.68717347 49.42895508 38.82568359 C49.43056764 40.83089138 49.42998851 42.83610238 49.42700195 44.84130859 C49.43823593 45.77381439 49.44946991 46.70632019 49.46104431 47.66708374 C49.39726595 53.67895577 48.64273166 57.378055 44.9309082 62.19287109 C39.85492447 65.92162004 34.55070538 65.66034544 28.4934082 65.66162109 C26.99596069 65.67304138 26.99596069 65.67304138 25.46826172 65.68469238 C23.36371352 65.69546764 21.25911197 65.69835699 19.15454102 65.69384766 C15.94106814 65.69287417 12.72997495 65.73455062 9.5168457 65.77880859 C7.4673715 65.78401518 5.41788902 65.78670379 3.3684082 65.78662109 C2.41200439 65.80301636 1.45560059 65.81941162 0.47021484 65.83630371 C-3.80861823 65.79211907 -7.05930022 65.69621347 -10.53393555 63.03076172 C-15.84078862 57.09019352 -16.52867811 52.33119307 -16.50268555 44.66552734 C-16.5079274 43.75838486 -16.51316925 42.85124237 -16.51856995 41.91661072 C-16.5249724 40.0045575 -16.52367623 38.09246479 -16.51513672 36.18041992 C-16.50662821 33.26783556 -16.53541007 30.35721509 -16.56713867 27.44482422 C-16.56875103 25.58089251 -16.5681725 23.71695736 -16.56518555 21.85302734 C-16.57641953 20.98927994 -16.5876535 20.12553253 -16.59922791 19.23561096 C-16.53243932 13.39058788 -15.4320254 10.00185457 -12.0690918 5.19287109 C-8.21377743 1.6196529 -5.23675313 0.09414736 0 0 Z " fill="#0A0907" transform="translate(392.069091796875,280.80712890625)"/>
<path d="M0 0 C0.84122406 -0.00953201 1.68244812 -0.01906403 2.54916382 -0.02888489 C3.45026886 -0.02797348 4.3513739 -0.02706207 5.27978516 -0.02612305 C6.21432526 -0.03040817 7.14886536 -0.0346933 8.11172485 -0.03910828 C10.08700756 -0.04484612 12.06231139 -0.04535585 14.03759766 -0.04101562 C17.05098791 -0.0378605 20.06339158 -0.06130488 23.07666016 -0.08666992 C24.99853392 -0.08894353 26.92041032 -0.08964612 28.84228516 -0.08862305 C29.73934174 -0.09783279 30.63639832 -0.10704254 31.56063843 -0.11653137 C37.40289633 -0.07359452 41.84420347 0.67545781 46.33837891 4.7746582 C50.63146874 10.28819164 50.87354977 14.46501837 50.93212891 21.25512695 C50.94020065 22.14194656 50.9482724 23.02876617 50.95658875 23.94245911 C50.97041946 25.82115735 50.98114615 27.69988061 50.98901367 29.57861328 C51.0061794 32.43416869 51.05006844 35.28855177 51.09423828 38.14379883 C51.10436999 39.97256639 51.11288459 41.80134376 51.11962891 43.63012695 C51.13713699 44.47625046 51.15464508 45.32237396 51.17268372 46.19413757 C51.15185218 51.96576444 50.2529128 56.6055206 46.69384766 61.2746582 C41.14447779 65.68308915 36.29991352 65.86621874 29.37744141 65.8059082 C28.40275406 65.80973511 27.42806671 65.81356201 26.42384338 65.81750488 C24.37231406 65.82021592 22.32074969 65.81291159 20.26928711 65.79614258 C17.13723488 65.77469851 14.0074703 65.79598405 10.87548828 65.8215332 C8.87613429 65.81889024 6.87678171 65.8137659 4.87744141 65.8059082 C3.48035194 65.81805359 3.48035194 65.81805359 2.05503845 65.83044434 C-3.51650439 65.75042309 -7.02844671 65.20151747 -11.30615234 61.2746582 C-14.95835132 56.12404678 -14.78874736 50.95752253 -14.81005859 44.87231445 C-14.82004379 43.87638779 -14.83002899 42.88046112 -14.84031677 41.85435486 C-14.8554629 39.75401956 -14.86254365 37.65361251 -14.86206055 35.55322266 C-14.86862514 32.3504294 -14.92315334 29.15073214 -14.97998047 25.94848633 C-14.98878304 23.90227291 -14.99473692 21.85604486 -14.99755859 19.80981445 C-15.01911514 18.85857193 -15.04067169 17.90732941 -15.06288147 16.92726135 C-15.00315901 11.09690907 -14.02774628 7.89163154 -9.98497009 3.63084412 C-6.75592461 1.02235013 -4.14167384 0.02589501 0 0 Z " fill="#070605" transform="translate(187.30615234375,278.725341796875)"/>
<path d="M0 0 C1.22223518 -0.02409439 1.22223518 -0.02409439 2.46916199 -0.04867554 C6.20013393 -0.09339012 9.93093162 -0.13420804 13.66210938 -0.15722656 C15.62414437 -0.17375374 17.58611996 -0.20100086 19.54785156 -0.23925781 C22.38809193 -0.29431515 25.22692319 -0.31594612 28.06762695 -0.33056641 C28.93562424 -0.35323578 29.80362152 -0.37590515 30.69792175 -0.39926147 C36.96521163 -0.37775612 41.13087528 1.11197246 45.9309082 5.19287109 C49.89509245 9.57746197 49.38210066 14.66430653 49.36450195 20.27880859 C49.3697438 21.25395416 49.37498566 22.22909973 49.38038635 23.23379517 C49.38679872 25.29306081 49.38547974 27.35236312 49.37695312 29.41162109 C49.36845574 32.55031145 49.39719576 35.68717347 49.42895508 38.82568359 C49.43056764 40.83089138 49.42998851 42.83610238 49.42700195 44.84130859 C49.43823593 45.77381439 49.44946991 46.70632019 49.46104431 47.66708374 C49.39726595 53.67895577 48.64273166 57.378055 44.9309082 62.19287109 C39.85492447 65.92162004 34.55070538 65.66034544 28.4934082 65.66162109 C26.99596069 65.67304138 26.99596069 65.67304138 25.46826172 65.68469238 C23.36371352 65.69546764 21.25911197 65.69835699 19.15454102 65.69384766 C15.94106814 65.69287417 12.72997495 65.73455062 9.5168457 65.77880859 C7.4673715 65.78401518 5.41788902 65.78670379 3.3684082 65.78662109 C2.41200439 65.80301636 1.45560059 65.81941162 0.47021484 65.83630371 C-3.80861823 65.79211907 -7.05930022 65.69621347 -10.53393555 63.03076172 C-15.84078862 57.09019352 -16.52867811 52.33119307 -16.50268555 44.66552734 C-16.5079274 43.75838486 -16.51316925 42.85124237 -16.51856995 41.91661072 C-16.5249724 40.0045575 -16.52367623 38.09246479 -16.51513672 36.18041992 C-16.50662821 33.26783556 -16.53541007 30.35721509 -16.56713867 27.44482422 C-16.56875103 25.58089251 -16.5681725 23.71695736 -16.56518555 21.85302734 C-16.57641953 20.98927994 -16.5876535 20.12553253 -16.59922791 19.23561096 C-16.53243932 13.39058788 -15.4320254 10.00185457 -12.0690918 5.19287109 C-8.21377743 1.6196529 -5.23675313 0.09414736 0 0 Z " fill="#0A0907" transform="translate(392.069091796875,185.80712890625)"/>
<path d="M0 0 C0.90335587 -0.00619858 1.80671173 -0.01239716 2.73744202 -0.01878357 C4.63932219 -0.02585643 6.5412646 -0.02275221 8.44311523 -0.01000977 C11.33629496 0.00385182 14.22623363 -0.03024628 17.11914062 -0.06835938 C18.9752612 -0.06931078 20.83138578 -0.06745057 22.6875 -0.0625 C23.54294907 -0.07575821 24.39839813 -0.08901642 25.2797699 -0.10267639 C31.44089653 -0.00824006 35.76661043 1.42342491 40.41015625 5.56640625 C44.72398411 10.4916462 45.00264081 15.6181162 44.94140625 21.9375 C44.94714661 23.25923973 44.94714661 23.25923973 44.95300293 24.60768127 C44.95571252 26.46250559 44.9484184 28.31736873 44.93164062 30.17211914 C44.9102422 32.99257702 44.93146073 35.81048056 44.95703125 38.63085938 C44.9543873 40.44141181 44.94926094 42.25196267 44.94140625 44.0625 C44.94950317 44.89607529 44.9576001 45.72965057 44.96594238 46.58848572 C44.87464943 52.36389545 43.60572746 56.71722375 40.41015625 61.56640625 C36.94093946 64.82536748 33.71659574 65.68390208 29.03393555 65.7434082 C27.7119239 65.76266106 27.7119239 65.76266106 26.36320496 65.78230286 C25.41319107 65.78968979 24.46317719 65.79707672 23.484375 65.8046875 C22.50402786 65.81275925 21.52368073 65.82083099 20.5136261 65.82914734 C18.43821985 65.84297905 16.36279094 65.85370529 14.28735352 65.86157227 C11.12016517 65.87878393 7.9540211 65.92267848 4.78710938 65.96679688 C2.76953892 65.97692425 0.75195959 65.98544021 -1.265625 65.9921875 C-2.20956619 66.00969559 -3.15350739 66.02720367 -4.12605286 66.04524231 C-9.74961478 66.02677334 -13.27772555 65.54972181 -17.58984375 61.56640625 C-21.2175254 56.44001137 -21.04243666 51.39584067 -21.0234375 45.34765625 C-21.02867935 44.37155396 -21.0339212 43.39545166 -21.0393219 42.38977051 C-21.04572661 40.33228504 -21.04442526 38.27476288 -21.03588867 36.21728516 C-21.02737108 33.07648368 -21.05617462 29.93749741 -21.08789062 26.796875 C-21.08950267 24.79296929 -21.08892504 22.78906038 -21.0859375 20.78515625 C-21.10278847 19.38336121 -21.10278847 19.38336121 -21.11997986 17.95324707 C-21.06037908 12.35518922 -20.54199956 8.8549584 -16.58984375 4.56640625 C-11.08796664 0.48082017 -6.73662949 -0.03896658 0 0 Z " fill="#0A0908" transform="translate(193.58984375,185.43359375)"/>
<path d="M0 0 C0.82127884 -0.00960754 1.64255768 -0.01921509 2.48872375 -0.02911377 C3.81531258 -0.03548859 3.81531258 -0.03548859 5.16870117 -0.04199219 C6.53933968 -0.0505423 6.53933968 -0.0505423 7.93766785 -0.05926514 C9.87184492 -0.06871136 11.80603807 -0.07524762 13.74023438 -0.07910156 C16.68998528 -0.08879592 19.63903599 -0.11981817 22.58862305 -0.15136719 C24.46947829 -0.15789867 26.35033851 -0.16314857 28.23120117 -0.16699219 C29.10952103 -0.17933899 29.98784088 -0.19168579 30.89277649 -0.20440674 C36.6912616 -0.18345924 41.08528114 0.59454542 45.54370117 4.66113281 C49.83679101 10.17466625 50.07887204 14.35149298 50.13745117 21.14160156 C50.14552292 22.02842117 50.15359467 22.91524078 50.16191101 23.82893372 C50.17574173 25.70763195 50.18646841 27.58635522 50.19433594 29.46508789 C50.21150167 32.3206433 50.25539071 35.17502638 50.29956055 38.03027344 C50.30969225 39.859041 50.31820686 41.68781837 50.32495117 43.51660156 C50.34245926 44.36272507 50.35996735 45.20884857 50.37800598 46.08061218 C50.35717719 51.85147888 49.45899742 56.49310915 45.89916992 61.16113281 C40.38364402 65.52479415 35.53075415 65.78805959 28.65307617 65.79785156 C27.68313217 65.80879349 26.71318817 65.81973541 25.71385193 65.83100891 C23.67077933 65.84681516 21.62760105 65.85208746 19.58447266 65.84741211 C16.47337709 65.84862824 13.36696888 65.90847364 10.2565918 65.97167969 C8.26376468 65.97982152 6.27091974 65.98449371 4.27807617 65.98535156 C3.35700577 66.00893234 2.43593536 66.03251312 1.48695374 66.05680847 C-4.84116997 65.96753885 -8.04604645 64.31458491 -12.61805725 59.95637512 C-14.99808946 57.07479107 -15.2295126 54.47388127 -15.26196289 50.87670898 C-15.27157043 50.01538864 -15.28117798 49.1540683 -15.29107666 48.26664734 C-15.29532654 47.33850723 -15.29957642 46.41036713 -15.30395508 45.45410156 C-15.30965515 44.49595047 -15.31535522 43.53779938 -15.32122803 42.5506134 C-15.33067553 40.52227888 -15.33721102 38.49392903 -15.34106445 36.46557617 C-15.35076006 33.37098212 -15.38178185 30.27705509 -15.41333008 27.18261719 C-15.41986138 25.21061592 -15.42511135 23.2386099 -15.42895508 21.26660156 C-15.44130188 20.34453415 -15.45364868 19.42246674 -15.46636963 18.47245789 C-15.44845386 13.27414833 -15.0225453 9.64967232 -12.10083008 5.16113281 C-8.23106317 1.58159842 -5.25212538 0.04971333 0 0 Z " fill="#030303" transform="translate(86.100830078125,278.8388671875)"/>
<path d="M0 0 C0.90335587 -0.00619858 1.80671173 -0.01239716 2.73744202 -0.01878357 C4.63932219 -0.02585643 6.5412646 -0.02275221 8.44311523 -0.01000977 C11.33629496 0.00385182 14.22623363 -0.03024628 17.11914062 -0.06835938 C18.9752612 -0.06931078 20.83138578 -0.06745057 22.6875 -0.0625 C23.54294907 -0.07575821 24.39839813 -0.08901642 25.2797699 -0.10267639 C31.44089653 -0.00824006 35.76661043 1.42342491 40.41015625 5.56640625 C44.72398411 10.4916462 45.00264081 15.6181162 44.94140625 21.9375 C44.94714661 23.25923973 44.94714661 23.25923973 44.95300293 24.60768127 C44.95571252 26.46250559 44.9484184 28.31736873 44.93164062 30.17211914 C44.9102422 32.99257702 44.93146073 35.81048056 44.95703125 38.63085938 C44.9543873 40.44141181 44.94926094 42.25196267 44.94140625 44.0625 C44.94950317 44.89607529 44.9576001 45.72965057 44.96594238 46.58848572 C44.87464943 52.36389545 43.60572746 56.71722375 40.41015625 61.56640625 C36.94093946 64.82536748 33.71659574 65.68390208 29.03393555 65.7434082 C27.7119239 65.76266106 27.7119239 65.76266106 26.36320496 65.78230286 C25.41319107 65.78968979 24.46317719 65.79707672 23.484375 65.8046875 C22.50402786 65.81275925 21.52368073 65.82083099 20.5136261 65.82914734 C18.43821985 65.84297905 16.36279094 65.85370529 14.28735352 65.86157227 C11.12016517 65.87878393 7.9540211 65.92267848 4.78710938 65.96679688 C2.76953892 65.97692425 0.75195959 65.98544021 -1.265625 65.9921875 C-2.20956619 66.00969559 -3.15350739 66.02720367 -4.12605286 66.04524231 C-9.74961478 66.02677334 -13.27772555 65.54972181 -17.58984375 61.56640625 C-21.2175254 56.44001137 -21.04243666 51.39584067 -21.0234375 45.34765625 C-21.02867935 44.37155396 -21.0339212 43.39545166 -21.0393219 42.38977051 C-21.04572661 40.33228504 -21.04442526 38.27476288 -21.03588867 36.21728516 C-21.02737108 33.07648368 -21.05617462 29.93749741 -21.08789062 26.796875 C-21.08950267 24.79296929 -21.08892504 22.78906038 -21.0859375 20.78515625 C-21.10278847 19.38336121 -21.10278847 19.38336121 -21.11997986 17.95324707 C-21.06037908 12.35518922 -20.54199956 8.8549584 -16.58984375 4.56640625 C-11.08796664 0.48082017 -6.73662949 -0.03896658 0 0 Z " fill="#090907" transform="translate(91.58984375,185.43359375)"/>
<path d="M0 0 C0.86124481 -0.0127597 1.72248962 -0.02551941 2.60983276 -0.03866577 C3.53281158 -0.04089142 4.45579041 -0.04311707 5.40673828 -0.04541016 C6.8418425 -0.05539536 6.8418425 -0.05539536 8.30593872 -0.06558228 C10.32828857 -0.07569907 12.35067174 -0.0803996 14.37304688 -0.08007812 C17.45905895 -0.08444718 20.54363579 -0.12076588 23.62939453 -0.15869141 C25.59683757 -0.16456066 27.56428739 -0.16852933 29.53173828 -0.17041016 C30.91013382 -0.19196671 30.91013382 -0.19196671 32.31637573 -0.21395874 C37.92408206 -0.174185 41.16689049 0.5252476 45.60205078 4.29052734 C50.43474964 9.77629362 50.77096142 13.30089912 50.80517578 20.46240234 C50.81087585 21.37757629 50.81657593 22.29275024 50.82244873 23.23565674 C50.83190604 25.17581016 50.83843561 27.11597969 50.84228516 29.05615234 C50.85196651 32.01477422 50.88297284 34.97269431 50.91455078 37.93115234 C50.9210833 39.81656489 50.92633279 41.7019824 50.93017578 43.58740234 C50.94252258 44.46885925 50.95486938 45.35031616 50.96759033 46.25848389 C50.94668669 52.06731191 50.17644236 56.46808241 46.10205078 60.93505859 C42.1479788 64.01388026 39.38707934 65.4012338 34.40942383 65.4675293 C33.56812424 65.48036453 32.72682465 65.49319977 31.86003113 65.50642395 C30.9537648 65.51381088 30.04749847 65.52119781 29.11376953 65.52880859 C28.17781448 65.53688034 27.24185944 65.54495209 26.27754211 65.55326843 C24.29629361 65.56709836 22.31502139 65.5778254 20.33374023 65.58569336 C17.31138733 65.602903 14.29012939 65.64679846 11.26806641 65.69091797 C9.34164214 65.7010456 7.4152086 65.70956148 5.48876953 65.71630859 C4.5885759 65.73381668 3.68838226 65.75132477 2.76091003 65.7693634 C-2.78564593 65.75028999 -6.09600249 65.12880075 -10.39794922 61.29052734 C-15.03021273 56.13813815 -15.01213118 51.48770774 -14.99951172 44.88818359 C-15.00808197 43.89225693 -15.01665222 42.89633026 -15.02548218 41.870224 C-15.03693695 39.76987745 -15.03799268 37.66945158 -15.02929688 35.5690918 C-15.02297508 32.36612885 -15.06992433 29.16686211 -15.12060547 25.96435547 C-15.12515198 23.91813615 -15.1265582 21.87190694 -15.12451172 19.82568359 C-15.14293121 18.87444107 -15.16135071 17.92319855 -15.18032837 16.94313049 C-15.09979335 11.11801349 -14.11308562 7.90467638 -10.07553101 3.64671326 C-6.81520814 1.01101229 -4.18009475 0.04222656 0 0 Z " fill="#030302" transform="translate(85.39794921875,371.70947265625)"/>
<path d="M0 0 C0.86124481 -0.0127597 1.72248962 -0.02551941 2.60983276 -0.03866577 C3.53281158 -0.04089142 4.45579041 -0.04311707 5.40673828 -0.04541016 C6.8418425 -0.05539536 6.8418425 -0.05539536 8.30593872 -0.06558228 C10.32828857 -0.07569907 12.35067174 -0.0803996 14.37304688 -0.08007812 C17.45905895 -0.08444718 20.54363579 -0.12076588 23.62939453 -0.15869141 C25.59683757 -0.16456066 27.56428739 -0.16852933 29.53173828 -0.17041016 C30.91013382 -0.19196671 30.91013382 -0.19196671 32.31637573 -0.21395874 C37.92562735 -0.17417404 41.16290307 0.52875686 45.60205078 4.29052734 C49.10602621 8.17331093 50.71241594 11.06813402 50.76318359 16.29956055 C50.77279114 17.10081863 50.78239868 17.90207672 50.79229736 18.72761536 C50.79654724 19.59013412 50.80079712 20.45265289 50.80517578 21.34130859 C50.81087585 22.23287155 50.81657593 23.12443451 50.82244873 24.04301453 C50.83189428 25.93011286 50.83843095 27.81722766 50.84228516 29.7043457 C50.85197885 32.58167555 50.88300133 35.45828736 50.91455078 38.33544922 C50.92108236 40.17073144 50.92633222 42.00601877 50.93017578 43.84130859 C50.94252258 44.69775467 50.95486938 45.55420074 50.96759033 46.43659973 C50.94635512 52.17306377 50.12168941 56.52811104 46.10205078 60.93505859 C42.1479788 64.01388026 39.38707934 65.4012338 34.40942383 65.4675293 C33.56812424 65.48036453 32.72682465 65.49319977 31.86003113 65.50642395 C30.9537648 65.51381088 30.04749847 65.52119781 29.11376953 65.52880859 C28.17781448 65.53688034 27.24185944 65.54495209 26.27754211 65.55326843 C24.29629361 65.56709836 22.31502139 65.5778254 20.33374023 65.58569336 C17.31138733 65.602903 14.29012939 65.64679846 11.26806641 65.69091797 C9.34164214 65.7010456 7.4152086 65.70956148 5.48876953 65.71630859 C4.5885759 65.73381668 3.68838226 65.75132477 2.76091003 65.7693634 C-2.78564593 65.75028999 -6.09600249 65.12880075 -10.39794922 61.29052734 C-15.03021273 56.13813815 -15.01213118 51.48770774 -14.99951172 44.88818359 C-15.00808197 43.89225693 -15.01665222 42.89633026 -15.02548218 41.870224 C-15.03693695 39.76987745 -15.03799268 37.66945158 -15.02929688 35.5690918 C-15.02297508 32.36612885 -15.06992433 29.16686211 -15.12060547 25.96435547 C-15.12515198 23.91813615 -15.1265582 21.87190694 -15.12451172 19.82568359 C-15.14293121 18.87444107 -15.16135071 17.92319855 -15.18032837 16.94313049 C-15.09979335 11.11801349 -14.11308562 7.90467638 -10.07553101 3.64671326 C-6.81520814 1.01101229 -4.18009475 0.04222656 0 0 Z " fill="#030303" transform="translate(187.39794921875,371.70947265625)"/>
<path d="M0 0 C-9.49782255 9.52094028 -18.99830509 19.03921726 -28.50224209 28.55405426 C-32.91468531 32.97172757 -37.32618884 37.390331 -41.7355957 41.81103516 C-45.98683711 46.07310101 -50.24048013 50.33275602 -54.49583626 54.5907135 C-56.12309538 56.21982768 -57.7494707 57.84982512 -59.37496758 59.48069763 C-61.6427819 61.75571651 -63.91365086 64.02764205 -66.18530273 66.29882812 C-67.20381569 67.32273399 -67.20381569 67.32273399 -68.24290466 68.36732483 C-68.85851257 68.98155807 -69.47412048 69.59579132 -70.10838318 70.2286377 C-70.64578849 70.7669648 -71.1831938 71.3052919 -71.73688412 71.85993195 C-73 73 -73 73 -74 73 C-74.1162459 65.18490141 -74.20489217 57.37000826 -74.25906086 49.55426025 C-74.28506975 45.92437026 -74.32030459 42.29507508 -74.37719727 38.66552734 C-74.43183357 35.15766623 -74.46148592 31.65037439 -74.47438622 28.14212036 C-74.48801615 26.16348473 -74.52699905 24.18507571 -74.56648254 22.20678711 C-74.56876617 14.8256092 -74.00221434 9.64658053 -69 4 C-64.82688312 0.07979929 -60.72422689 -0.12126565 -55.16162109 -0.22119141 C-53.98715424 -0.24436432 -52.81268738 -0.26753723 -51.60263062 -0.29141235 C-50.33899689 -0.3112619 -49.07536316 -0.33111145 -47.7734375 -0.3515625 C-45.82469223 -0.38629166 -45.82469223 -0.38629166 -43.83657837 -0.42172241 C-41.09128924 -0.47008324 -38.34597052 -0.51503068 -35.60058594 -0.55761719 C-32.07856488 -0.61256116 -28.55676968 -0.67638581 -25.03494835 -0.74279213 C-21.6770231 -0.80482364 -18.31898568 -0.85908262 -14.9609375 -0.9140625 C-13.05941422 -0.94990952 -13.05941422 -0.94990952 -11.11947632 -0.98648071 C-9.36723251 -1.0117836 -9.36723251 -1.0117836 -7.57958984 -1.03759766 C-6.54796722 -1.05456696 -5.5163446 -1.07153625 -4.45346069 -1.08901978 C-2 -1 -2 -1 0 0 Z " fill="#EDE0DB" transform="translate(461,383)"/>
<path d="M0 0 C0.86124481 -0.0127597 1.72248962 -0.02551941 2.60983276 -0.03866577 C3.53281158 -0.04089142 4.45579041 -0.04311707 5.40673828 -0.04541016 C6.8418425 -0.05539536 6.8418425 -0.05539536 8.30593872 -0.06558228 C10.32828857 -0.07569907 12.35067174 -0.0803996 14.37304688 -0.08007812 C17.45905895 -0.08444718 20.54363579 -0.12076588 23.62939453 -0.15869141 C25.59683757 -0.16456066 27.56428739 -0.16852933 29.53173828 -0.17041016 C30.91013382 -0.19196671 30.91013382 -0.19196671 32.31637573 -0.21395874 C39.31380605 -0.16432812 42.71188318 1.69413721 47.94384766 6.39428711 C50.42661347 10.73071981 50.17469449 14.7145856 50.13330078 19.63037109 C50.13904114 21.12994102 50.13904114 21.12994102 50.14489746 22.6598053 C50.14761483 24.77036549 50.14026597 26.88095945 50.12353516 28.99145508 C50.10214616 32.21365899 50.1233318 35.4336275 50.14892578 38.65576172 C50.14628203 40.70980308 50.14115609 42.76384305 50.13330078 44.81787109 C50.14139771 45.77741196 50.14949463 46.73695282 50.15783691 47.72557068 C50.07643885 53.56389909 49.42177872 56.80911075 45.60205078 61.29052734 C42.07858895 64.38690289 39.05925741 65.40559994 34.40942383 65.4675293 C33.56812424 65.48036453 32.72682465 65.49319977 31.86003113 65.50642395 C30.9537648 65.51381088 30.04749847 65.52119781 29.11376953 65.52880859 C28.17781448 65.53688034 27.24185944 65.54495209 26.27754211 65.55326843 C24.29629361 65.56709836 22.31502139 65.5778254 20.33374023 65.58569336 C17.31138733 65.602903 14.29012939 65.64679846 11.26806641 65.69091797 C9.34164214 65.7010456 7.4152086 65.70956148 5.48876953 65.71630859 C4.5885759 65.73381668 3.68838226 65.75132477 2.76091003 65.7693634 C-4.05081031 65.74593936 -7.07035658 64.15914169 -12.21044922 59.72802734 C-14.93740779 56.42697223 -14.73481741 52.45568727 -14.67529297 48.38818359 C-14.39794922 46.29052734 -14.39794922 46.29052734 -12.77294922 44.22802734 C-9.69741736 43.01400161 -7.67855523 42.81210563 -4.39794922 43.29052734 C-2.02294922 45.10302734 -2.02294922 45.10302734 -0.39794922 47.29052734 C-0.39794922 48.28052734 -0.39794922 49.27052734 -0.39794922 50.29052734 C11.15205078 50.29052734 22.70205078 50.29052734 34.60205078 50.29052734 C34.60205078 38.74052734 34.60205078 27.19052734 34.60205078 15.29052734 C23.05205078 15.29052734 11.50205078 15.29052734 -0.39794922 15.29052734 C-0.39794922 19.58052734 -0.39794922 23.87052734 -0.39794922 28.29052734 C-4.39794922 32.29052734 -4.39794922 32.29052734 -7.96044922 32.72802734 C-11.39794922 32.29052734 -11.39794922 32.29052734 -13.08129883 31.03955078 C-15.59755376 27.69698629 -14.95175551 23.57440598 -14.96044922 19.54052734 C-15.01555664 18.21794922 -15.01555664 18.21794922 -15.07177734 16.86865234 C-15.11070193 11.05591425 -14.09413199 7.89666467 -10.08129883 3.65673828 C-6.85650045 1.0394835 -4.14228304 0.04184459 0 0 Z " fill="#020202" transform="translate(289.39794921875,371.70947265625)"/>
<path d="M0 0 C11.55 0 23.1 0 35 0 C35 11.55 35 23.1 35 35 C23.45 35 11.9 35 0 35 C-0.66 33.35 -1.32 31.7 -2 30 C-4.52372901 28.63921965 -4.52372901 28.63921965 -7 28 C-7 24.7 -7 21.4 -7 18 C-7.66 17.67 -8.32 17.34 -9 17 C-7.865625 16.71125 -6.73125 16.4225 -5.5625 16.125 C-4.386875 15.75375 -3.21125 15.3825 -2 15 C0.25585658 10.48828685 -0.38687621 5.02939074 0 0 Z " fill="#FCD9A4" transform="translate(289,387)"/>
<path d="M0 0 C11.88 0 23.76 0 36 0 C36 11.55 36 23.1 36 35 C24.12 35 12.24 35 0 35 C0 23.45 0 11.9 0 0 Z " fill="#F5D3A0" transform="translate(85,294)"/>
<path d="M0 0 C11.55 0 23.1 0 35 0 C35 11.55 35 23.1 35 35 C23.45 35 11.9 35 0 35 C0 23.45 0 11.9 0 0 Z " fill="#FAD8A3" transform="translate(188,387)"/>
<path d="M0 0 C11.55 0 23.1 0 35 0 C35 11.55 35 23.1 35 35 C23.45 35 11.9 35 0 35 C0 23.45 0 11.9 0 0 Z " fill="#FBD8A4" transform="translate(86,387)"/>
<path d="M0 0 C11.22 0 22.44 0 34 0 C34 11.55 34 23.1 34 35 C22.78 35 11.56 35 0 35 C0 23.45 0 11.9 0 0 Z " fill="#FCD9A5" transform="translate(290,294)"/>
<path d="M0 0 C11.22 0 22.44 0 34 0 C34 11.55 34 23.1 34 35 C22.78 35 11.56 35 0 35 C0 23.45 0 11.9 0 0 Z " fill="#FCD9A5" transform="translate(188,294)"/>
<path d="M0 0 C11.22 0 22.44 0 34 0 C34 11.22 34 22.44 34 34 C22.78 34 11.56 34 0 34 C0 22.78 0 11.56 0 0 Z " fill="#FEDBA6" transform="translate(392,297)"/>
<path d="M0 0 C11.22 0 22.44 0 34 0 C34 11.22 34 22.44 34 34 C22.78 34 11.56 34 0 34 C0 22.78 0 11.56 0 0 Z " fill="#FEDBA6" transform="translate(392,202)"/>
<path d="M0 0 C11.22 0 22.44 0 34 0 C34 11.22 34 22.44 34 34 C22.78 34 11.56 34 0 34 C0 22.78 0 11.56 0 0 Z " fill="#FEDBA6" transform="translate(290,202)"/>
<path d="M0 0 C11.22 0 22.44 0 34 0 C34 11.22 34 22.44 34 34 C22.78 34 11.56 34 0 34 C0 22.78 0 11.56 0 0 Z " fill="#FEDBA6" transform="translate(188,202)"/>
<path d="M0 0 C11.22 0 22.44 0 34 0 C34 11.22 34 22.44 34 34 C22.78 34 11.56 34 0 34 C0 22.78 0 11.56 0 0 Z " fill="#FEDBA6" transform="translate(86,202)"/>
<path d="M0 0 C85.14 0 170.28 0 258 0 C258.33 9.57 258.66 19.14 259 29 C260.65 31.64 262.3 34.28 264 37 C264 37.66 264 38.32 264 39 C264.86625 39.4021875 264.86625 39.4021875 265.75 39.8125 C268.03412048 41.01800803 269.95431531 42.43135523 272 44 C258.56136965 44.92185726 258.56136965 44.92185726 252.71484375 40.55859375 C248.08336894 36.3491212 245.35103011 32.87757527 243 27 C243 18.42 243 9.84 243 1 C163.14 1 83.28 1 1 1 C1 8.59 1 16.18 1 24 C0.67 24 0.34 24 0 24 C0 16.08 0 8.16 0 0 Z " fill="#E5A849" transform="translate(110,49)"/>
<path d="M0 0 C12.21 0 24.42 0 37 0 C37.1875 12.875 37.1875 12.875 37.20776367 16.87060547 C37.43798945 25.64293328 38.88794196 32.8592365 45.23828125 39.25390625 C45.92277344 39.68574219 46.60726562 40.11757812 47.3125 40.5625 C48.54648216 41.36766766 49.77730619 42.17779151 51 43 C51 43.33 51 43.66 51 44 C43.51944062 44.44883356 37.15389358 44.71157477 31 40 C26.83427535 35.99234972 23.21823697 31.90701034 22.77294922 25.97558594 C22.78342285 24.82348633 22.79389648 23.67138672 22.8046875 22.484375 C22.81113281 21.23398438 22.81757812 19.98359375 22.82421875 18.6953125 C22.84097656 17.39335938 22.85773438 16.09140625 22.875 14.75 C22.88402344 13.43257812 22.89304687 12.11515625 22.90234375 10.7578125 C22.92591391 7.50513084 22.96178475 4.25254256 23 1 C15.41 1 7.82 1 0 1 C0 0.67 0 0.34 0 0 Z " fill="#F7B141" transform="translate(58,49)"/>
</svg>
